<?xml version="1.0" encoding="iso-8859-1"?>
<!-- Uploaded to: SVG Repo, www.svgrepo.com, Generator: SVG Repo Mixer Tools -->
<svg version="1.1" id="Layer_1" xmlns="http://www.w3.org/2000/svg" xmlns:xlink="http://www.w3.org/1999/xlink" 
	 viewBox="0 0 512 512" xml:space="preserve">
<circle style="fill:#21D0C3;" cx="256" cy="256" r="256"/>
<path style="fill:#10ADA3;" d="M130.888,131.012h69.451v83.812c-9.346-40.92-52.512-34.456-59.916-70.053
	C139.585,140.728,130.292,140.491,130.888,131.012z M130.888,355.694h69.451v83.812c-9.346-40.92-52.512-34.456-59.916-70.053
	C139.585,365.405,130.292,365.173,130.888,355.694z M377.329,355.694h-69.451v83.812c9.346-40.92,52.512-34.456,59.916-70.053
	C368.632,365.405,377.927,365.173,377.329,355.694z M130.888,243.356h69.451v83.812c-9.346-40.92-52.512-34.456-59.916-70.053
	C139.585,253.071,130.292,252.834,130.888,243.356z M377.329,243.356h-69.451v83.812c9.346-40.92,52.512-34.456,59.916-70.053
	C368.632,253.071,377.927,252.834,377.329,243.356z M377.329,131.012h-69.451v83.812c9.346-40.92,52.512-34.456,59.916-70.053
	C368.632,140.728,377.927,140.491,377.329,131.012z"/>
<path style="fill:#FFFFFF;" d="M242.848,100.021h22.526c34.92,0,63.489,28.574,63.489,63.489v266.014
	c0,7.602-6.218,13.82-13.82,13.82H193.179c-7.602,0-13.82-6.218-13.82-13.82V163.51C179.359,128.59,207.933,100.021,242.848,100.021
	z"/>
<g>
	<path style="fill:#ECF0F1;" d="M254.105,229.255c23.431,0,42.427,18.996,42.427,42.427s-18.996,42.427-42.427,42.427
		s-42.427-18.996-42.427-42.427C211.678,248.251,230.672,229.255,254.105,229.255z"/>
	<path style="fill:#ECF0F1;" d="M254.105,116.965c23.431,0,42.427,18.996,42.427,42.427s-18.996,42.427-42.427,42.427
		s-42.427-18.996-42.427-42.427S230.672,116.965,254.105,116.965z"/>
</g>
<path style="fill:#FF5B62;" d="M254.105,126.291c18.28,0,33.105,14.82,33.105,33.1s-14.82,33.1-33.105,33.1
	c-18.28,0-33.1-14.82-33.1-33.1S235.824,126.291,254.105,126.291z"/>
<path style="fill:#FAD24D;" d="M254.105,238.578c18.28,0,33.105,14.82,33.105,33.105c0,18.28-14.82,33.1-33.105,33.1
	c-18.28,0-33.1-14.82-33.1-33.1C221.004,253.403,235.824,238.578,254.105,238.578z"/>
<path style="fill:#ECF0F1;" d="M254.105,341.547c23.431,0,42.427,18.996,42.427,42.422c0,23.436-18.996,42.427-42.427,42.427
	s-42.427-18.991-42.427-42.427C211.677,360.538,230.672,341.547,254.105,341.547z"/>
<path style="fill:#21D0C3;" d="M254.105,350.869c18.28,0,33.105,14.82,33.105,33.105c0,18.28-14.82,33.1-33.105,33.1
	c-18.28,0-33.1-14.82-33.1-33.1S235.824,350.869,254.105,350.869z"/>
<path style="fill:#ECF0F1;" d="M250.915,29.271h18.081h105.95c15.611,8.209,30.276,17.963,43.779,29.09H272.142
	c-1.73,0-3.147,1.417-3.147,3.147v38.977h-28.564V53.854V39.759c0-5.778,4.711-10.489,10.489-10.489
	C250.92,29.271,250.915,29.271,250.915,29.271z"/>
<path style="fill:#C9CACC;" d="M418.718,58.361H272.137c-1.73,0-3.147,1.417-3.147,3.147v38.977h-5.417V58.74
	c0-2.886,2.36-5.247,5.247-5.247h143.789C414.671,55.091,416.709,56.702,418.718,58.361z"/>
<g>
	<rect x="179.35" y="214.441" style="fill:#ECF0F1;" width="149.508" height="1.886"/>
	<rect x="179.499" y="325.574" style="fill:#ECF0F1;" width="149.229" height="1.886"/>
</g>
</svg>